<?xml version="1.0" encoding="UTF-8" standalone="no"?>
<!DOCTYPE svg PUBLIC "-//W3C//DTD SVG 20010904//EN"
              "http://www.w3.org/TR/2001/REC-SVG-20010904/DTD/svg10.dtd">

<svg xmlns="http://www.w3.org/2000/svg"
     width="13.4167in" height="11.7361in"
     viewBox="0 0 966 845">
  <path id="التحديد"
        fill="none" stroke="black" stroke-width="1"
        d="M 392.00,228.00
           C 392.00,228.00 400.84,195.00 400.84,195.00
             400.84,195.00 409.28,162.00 409.28,162.00
             409.28,162.00 420.14,127.00 420.14,127.00
             420.14,127.00 425.39,108.28 425.39,108.28
             425.39,108.28 435.97,76.00 435.97,76.00
             441.17,59.82 447.44,36.18 465.09,29.72
             467.70,28.76 473.07,28.97 476.00,29.00
             485.40,29.11 484.86,31.50 491.00,32.00
             491.00,32.00 492.00,34.00 492.00,34.00
             492.00,34.00 491.00,35.00 491.00,35.00
             494.96,35.66 496.34,37.04 497.00,41.00
             497.00,41.00 503.00,42.00 503.00,42.00
             503.00,42.00 508.71,51.09 508.71,51.09
             508.71,51.09 514.20,58.28 514.20,58.28
             514.20,58.28 522.57,74.04 522.57,74.04
             522.57,74.04 521.00,90.00 521.00,90.00
             521.00,90.00 517.00,88.00 517.00,88.00
             517.00,88.00 520.00,91.00 520.00,91.00
             520.00,91.00 504.38,144.00 504.38,144.00
             504.38,144.00 501.28,156.00 501.28,156.00
             501.28,156.00 497.51,166.00 497.51,166.00
             497.51,166.00 492.85,186.00 492.85,186.00
             492.85,186.00 489.00,195.00 489.00,195.00
             489.00,195.00 489.00,203.00 489.00,203.00
             489.00,203.00 486.00,201.00 486.00,201.00
             486.00,201.00 485.00,206.00 485.00,206.00
             485.00,206.00 482.00,205.00 482.00,205.00
             482.00,205.00 482.00,212.00 482.00,212.00
             477.81,213.41 476.88,219.31 475.15,223.00
             475.15,223.00 471.90,232.00 471.90,232.00
             471.90,232.00 464.78,247.68 464.78,247.68
             462.03,252.68 457.30,257.66 458.31,264.00
             459.09,268.85 469.06,276.58 473.66,273.35
             476.16,271.59 479.02,261.38 480.12,258.00
             480.12,258.00 485.00,244.00 485.00,244.00
             485.00,244.00 488.00,244.00 488.00,244.00
             488.00,244.00 488.00,243.00 488.00,243.00
             488.00,243.00 486.00,242.00 486.00,242.00
             486.00,242.00 488.00,238.00 488.00,238.00
             488.00,238.00 489.00,240.00 489.00,240.00
             489.00,240.00 488.00,235.00 488.00,235.00
             488.00,235.00 489.00,232.00 489.00,232.00
             489.00,232.00 491.00,233.00 491.00,233.00
             491.00,233.00 491.00,230.00 491.00,230.00
             491.00,230.00 494.00,233.00 494.00,233.00
             494.00,233.00 492.00,223.00 492.00,223.00
             492.00,223.00 494.00,224.00 494.00,224.00
             494.00,224.00 493.00,221.00 493.00,221.00
             493.00,221.00 502.00,211.00 502.00,211.00
             502.00,211.00 500.00,207.00 500.00,207.00
             500.00,207.00 497.00,211.00 497.00,211.00
             497.00,211.00 501.00,200.00 501.00,200.00
             501.00,200.00 504.00,198.00 504.00,198.00
             504.00,198.00 502.00,199.00 502.00,199.00
             508.77,186.63 520.63,178.24 535.00,184.00
             535.00,184.00 533.00,185.00 533.00,185.00
             533.00,185.00 540.00,186.00 540.00,186.00
             540.00,186.00 537.00,185.00 537.00,185.00
             541.27,188.33 549.92,190.68 555.96,198.05
             559.44,202.29 563.37,208.81 565.20,214.00
             566.25,216.96 566.77,222.17 569.14,224.08
             571.19,225.72 575.53,225.19 578.00,225.00
             578.00,225.00 578.00,233.00 578.00,233.00
             578.00,233.00 585.00,232.00 585.00,232.00
             587.70,228.73 592.26,228.55 596.00,230.31
             596.00,230.31 616.00,244.00 616.00,244.00
             616.00,244.00 615.00,242.00 615.00,242.00
             615.00,242.00 635.00,248.00 635.00,248.00
             635.00,248.00 636.00,251.00 636.00,251.00
             636.00,251.00 633.00,254.00 633.00,254.00
             633.00,254.00 636.00,257.00 636.00,257.00
             636.00,257.00 638.00,254.00 638.00,254.00
             638.00,254.00 640.00,253.00 640.00,253.00
             640.00,253.00 641.00,254.00 641.00,254.00
             641.00,254.00 641.00,255.00 641.00,255.00
             641.00,255.00 639.00,257.00 639.00,257.00
             639.00,257.00 642.00,258.00 642.00,258.00
             642.00,258.00 642.00,267.00 642.00,267.00
             642.00,267.00 645.00,267.00 645.00,267.00
             645.00,267.00 642.72,291.00 642.72,291.00
             642.72,291.00 640.46,301.00 640.46,301.00
             639.20,308.09 638.79,313.92 636.48,321.00
             633.27,330.84 625.74,342.02 624.30,352.00
             624.30,352.00 622.91,375.00 622.91,375.00
             622.91,375.00 619.96,415.00 619.96,415.00
             619.96,415.00 619.96,425.00 619.96,425.00
             619.96,425.00 618.32,436.00 618.32,436.00
             618.32,436.00 616.20,444.00 616.20,444.00
             616.20,444.00 614.54,458.00 614.54,458.00
             614.54,458.00 608.04,485.00 608.04,485.00
             608.04,485.00 599.58,521.00 599.58,521.00
             599.58,521.00 592.98,545.00 592.98,545.00
             592.98,545.00 592.98,553.00 592.98,553.00
             592.98,553.00 590.15,566.00 590.15,566.00
             589.58,570.82 588.50,579.88 585.91,583.87
             584.34,586.30 582.45,587.16 580.16,588.74
             573.04,593.68 569.76,594.97 561.00,595.00
             561.00,595.00 562.00,598.00 562.00,598.00
             562.00,598.00 559.00,599.00 559.00,599.00
             559.00,599.00 550.00,600.00 550.00,600.00
             550.00,600.00 552.00,600.00 552.00,600.00
             552.00,600.00 552.00,601.00 552.00,601.00
             552.00,601.00 535.00,602.79 535.00,602.79
             535.00,602.79 485.00,598.00 485.00,598.00
             485.00,598.00 487.00,595.00 487.00,595.00
             487.00,595.00 481.00,598.00 481.00,598.00
             481.00,598.00 480.00,596.00 480.00,596.00
             480.00,596.00 481.00,595.00 481.00,595.00
             472.16,595.69 468.53,595.07 460.00,592.32
             454.59,590.57 448.61,587.38 443.00,588.00
             438.57,584.72 434.28,587.09 433.00,582.00
             433.00,582.00 428.00,583.00 428.00,583.00
             428.00,583.00 429.00,580.00 429.00,580.00
             429.00,580.00 425.00,582.00 425.00,582.00
             425.00,582.00 419.00,580.00 419.00,580.00
             411.85,574.05 396.84,571.95 393.00,561.00
             385.78,559.57 386.09,549.80 384.14,543.91
             384.14,543.91 381.98,535.00 381.98,535.00
             381.98,535.00 371.50,507.00 371.50,507.00
             371.50,507.00 364.63,490.00 364.63,490.00
             364.63,490.00 352.67,472.00 352.67,472.00
             352.67,472.00 346.69,459.00 346.69,459.00
             346.69,459.00 335.32,439.00 335.32,439.00
             326.06,424.33 310.23,400.00 305.22,384.00
             301.71,372.77 300.71,360.65 299.91,349.00
             299.91,349.00 299.18,342.00 299.18,342.00
             299.18,342.00 300.00,330.00 300.00,330.00
             300.00,330.00 300.00,308.00 300.00,308.00
             300.00,308.00 303.58,268.00 303.58,268.00
             303.58,268.00 305.36,255.00 305.36,255.00
             307.76,243.87 316.39,226.13 321.98,216.00
             326.33,208.12 332.35,198.50 341.00,194.79
             349.21,191.27 353.77,192.91 362.00,194.00
             362.00,194.00 361.00,196.00 361.00,196.00
             371.89,197.51 374.06,205.21 381.00,209.00
             381.58,212.44 382.59,214.05 386.00,215.00
             386.00,215.00 385.00,220.00 385.00,220.00
             385.00,220.00 392.00,228.00 392.00,228.00 Z
           M 463.00,33.00
           C 463.00,33.00 462.00,33.00 462.00,33.00
             462.00,33.00 463.00,34.00 463.00,34.00
             463.00,34.00 463.00,33.00 463.00,33.00 Z
           M 467.00,37.00
           C 467.00,37.00 466.00,37.00 466.00,37.00
             466.00,37.00 467.00,38.00 467.00,38.00
             467.00,38.00 467.00,37.00 467.00,37.00 Z
           M 475.00,45.00
           C 475.00,45.00 474.00,45.00 474.00,45.00
             474.00,45.00 475.00,46.00 475.00,46.00
             475.00,46.00 475.00,45.00 475.00,45.00 Z
           M 476.00,46.00
           C 476.00,46.00 475.00,46.00 475.00,46.00
             475.00,46.00 476.00,47.00 476.00,47.00
             476.00,47.00 476.00,46.00 476.00,46.00 Z
           M 478.00,48.00
           C 478.00,48.00 477.00,48.00 477.00,48.00
             477.00,48.00 478.00,49.00 478.00,49.00
             478.00,49.00 478.00,48.00 478.00,48.00 Z
           M 480.00,50.00
           C 480.00,50.00 479.00,50.00 479.00,50.00
             479.00,50.00 480.00,51.00 480.00,51.00
             480.00,51.00 480.00,50.00 480.00,50.00 Z
           M 521.00,83.00
           C 521.00,83.00 520.00,83.00 520.00,83.00
             520.00,83.00 521.00,84.00 521.00,84.00
             521.00,84.00 521.00,83.00 521.00,83.00 Z
           M 502.00,202.00
           C 502.00,202.00 501.00,202.00 501.00,202.00
             501.00,202.00 502.00,203.00 502.00,203.00
             502.00,203.00 502.00,202.00 502.00,202.00 Z
           M 483.00,203.00
           C 483.00,203.00 482.00,203.00 482.00,203.00
             482.00,203.00 483.00,204.00 483.00,204.00
             483.00,204.00 483.00,203.00 483.00,203.00 Z
           M 487.00,204.00
           C 487.00,204.00 488.00,204.00 488.00,204.00
             488.00,204.00 487.00,205.00 487.00,205.00
             487.00,205.00 487.00,204.00 487.00,204.00 Z
           M 496.00,213.00
           C 496.00,213.00 497.00,213.00 497.00,213.00
             497.00,213.00 496.00,214.00 496.00,214.00
             496.00,214.00 496.00,213.00 496.00,213.00 Z
           M 498.00,218.00
           C 498.00,218.00 497.00,218.00 497.00,218.00
             497.00,218.00 498.00,219.00 498.00,219.00
             498.00,219.00 498.00,218.00 498.00,218.00 Z
           M 593.00,232.00
           C 593.00,232.00 592.00,232.00 592.00,232.00
             592.00,232.00 593.00,233.00 593.00,233.00
             593.00,233.00 593.00,232.00 593.00,232.00 Z
           M 608.00,239.00
           C 608.00,239.00 607.00,239.00 607.00,239.00
             607.00,239.00 608.00,240.00 608.00,240.00
             608.00,240.00 608.00,239.00 608.00,239.00 Z
           M 610.00,241.00
           C 610.00,241.00 609.00,241.00 609.00,241.00
             609.00,241.00 610.00,242.00 610.00,242.00
             610.00,242.00 610.00,241.00 610.00,241.00 Z
           M 567.00,244.00
           C 567.00,244.00 565.00,244.00 565.00,244.00
             560.67,250.29 549.38,269.07 548.01,276.00
             547.57,278.26 547.79,279.77 548.01,282.00
             552.89,279.63 553.14,279.05 555.00,274.00
             555.00,274.00 558.00,275.00 558.00,275.00
             558.00,275.00 566.00,259.00 566.00,259.00
             566.00,259.00 567.00,244.00 567.00,244.00 Z
           M 625.00,248.00
           C 625.00,248.00 624.00,248.00 624.00,248.00
             624.00,248.00 625.00,249.00 625.00,249.00
             625.00,249.00 625.00,248.00 625.00,248.00 Z
           M 626.00,249.00
           C 626.87,251.81 628.17,252.30 631.00,252.00
             631.00,252.00 626.00,249.00 626.00,249.00 Z
           M 633.00,251.00
           C 633.00,251.00 632.00,251.00 632.00,251.00
             632.00,251.00 633.00,252.00 633.00,252.00
             633.00,252.00 633.00,251.00 633.00,251.00 Z
           M 640.00,254.00
           C 640.00,254.00 639.00,254.00 639.00,254.00
             639.00,254.00 640.00,255.00 640.00,255.00
             640.00,255.00 640.00,254.00 640.00,254.00 Z
           M 369.00,256.00
           C 369.00,256.00 361.00,256.00 361.00,256.00
             361.00,256.00 357.81,262.42 357.81,262.42
             355.78,267.30 357.75,273.21 361.00,277.00
             361.00,277.00 361.00,274.00 361.00,274.00
             361.00,274.00 365.00,278.00 365.00,278.00
             365.00,278.00 369.00,265.00 369.00,265.00
             369.00,265.00 372.00,265.00 372.00,265.00
             372.00,265.00 372.00,259.00 372.00,259.00
             372.00,259.00 369.00,256.00 369.00,256.00 Z
           M 629.00,258.00
           C 629.00,258.00 628.00,258.00 628.00,258.00
             628.00,258.00 629.00,259.00 629.00,259.00
             629.00,259.00 629.00,258.00 629.00,258.00 Z
           M 638.00,258.00
           C 638.00,258.00 637.00,258.00 637.00,258.00
             637.00,258.00 638.00,259.00 638.00,259.00
             638.00,259.00 638.00,258.00 638.00,258.00 Z
           M 641.00,258.00
           C 641.00,258.00 640.00,258.00 640.00,258.00
             640.00,258.00 641.00,259.00 641.00,259.00
             641.00,259.00 641.00,258.00 641.00,258.00 Z
           M 550.00,277.00
           C 550.00,277.00 551.00,277.00 551.00,277.00
             551.00,277.00 550.00,278.00 550.00,278.00
             550.00,278.00 550.00,277.00 550.00,277.00 Z
           M 362.00,279.00
           C 362.00,279.00 361.00,279.00 361.00,279.00
             361.00,279.00 362.00,280.00 362.00,280.00
             362.00,280.00 362.00,279.00 362.00,279.00 Z
           M 552.00,281.00
           C 552.00,281.00 551.00,281.00 551.00,281.00
             551.00,281.00 552.00,282.00 552.00,282.00
             552.00,282.00 552.00,281.00 552.00,281.00 Z
           M 358.00,334.00
           C 360.40,335.53 363.41,327.65 364.23,325.58
             366.71,319.35 368.74,304.87 363.23,299.74
             358.35,295.19 349.91,304.62 348.72,307.47
             347.47,310.51 348.35,313.88 348.72,317.00
             349.79,326.08 347.16,326.24 354.00,334.00
             354.00,334.00 355.00,332.00 355.00,332.00
             355.00,332.00 357.00,336.00 357.00,336.00
             357.00,336.00 358.00,334.00 358.00,334.00 Z
           M 354.00,346.00
           C 354.00,346.00 353.00,346.00 353.00,346.00
             353.00,346.00 354.00,347.00 354.00,347.00
             354.00,347.00 354.00,346.00 354.00,346.00 Z
           M 378.00,546.00
           C 379.82,550.45 378.97,553.36 381.98,557.91
             391.41,572.18 409.91,580.09 425.00,586.50
             437.60,591.85 450.80,595.70 464.00,599.28
             487.13,605.56 500.61,609.04 525.00,609.00
             535.64,608.98 549.96,607.44 560.00,603.97
             565.86,601.95 578.29,595.12 583.00,595.00
             583.87,590.42 588.49,586.02 592.00,583.00
             591.90,594.46 590.30,592.98 585.57,597.29
             582.38,600.20 582.09,601.06 578.00,603.00
             577.23,606.75 574.24,610.00 571.00,612.00
             571.00,612.00 573.00,616.00 573.00,616.00
             573.00,616.00 556.00,620.00 556.00,620.00
             556.00,620.00 561.00,621.00 561.00,621.00
             561.00,621.00 526.00,626.00 526.00,626.00
             519.14,626.01 511.21,624.73 505.00,628.00
             505.00,628.00 532.00,626.98 532.00,626.98
             532.00,626.98 545.00,626.98 545.00,626.98
             545.00,626.98 554.00,624.33 554.00,624.33
             554.00,624.33 575.00,618.00 575.00,618.00
             575.00,618.00 574.00,624.00 574.00,624.00
             574.00,624.00 576.00,623.00 576.00,623.00
             576.00,623.00 577.00,624.00 577.00,624.00
             577.91,628.06 583.87,635.08 588.01,636.14
             590.31,636.72 591.95,635.81 594.00,635.00
             594.00,635.00 589.94,665.00 589.94,665.00
             589.94,665.00 589.94,674.00 589.94,674.00
             589.94,674.00 587.17,691.00 587.17,691.00
             587.17,691.00 584.56,715.00 584.56,715.00
             584.56,715.00 579.00,748.00 579.00,748.00
             576.60,749.03 576.16,751.87 574.57,754.00
             572.54,756.71 567.91,761.34 565.00,763.03
             565.00,763.03 560.00,765.37 560.00,765.37
             560.00,765.37 551.00,770.51 551.00,770.51
             533.37,778.80 514.06,779.22 495.00,779.00
             489.30,778.93 480.42,778.63 476.00,775.00
             473.55,777.50 470.90,776.33 468.00,775.00
             468.00,775.00 471.00,774.00 471.00,774.00
             465.45,774.73 462.33,775.46 457.00,773.00
             457.00,773.00 459.00,772.00 459.00,772.00
             450.14,773.18 446.21,770.49 438.01,768.42
             434.35,767.49 430.22,767.18 428.00,764.00
             428.00,764.00 425.00,765.00 425.00,765.00
             425.00,765.00 425.00,763.00 425.00,763.00
             420.20,763.76 415.82,763.34 413.00,759.00
             407.88,759.91 396.06,755.30 393.00,751.00
             387.10,750.99 378.79,745.80 374.01,742.33
             363.52,734.74 356.06,725.32 356.00,712.00
             355.94,698.71 358.01,686.10 359.71,673.00
             359.71,673.00 362.00,647.00 362.00,647.00
             365.25,646.92 365.38,646.83 367.00,644.00
             367.00,644.00 362.00,642.00 362.00,642.00
             362.00,642.00 362.00,644.00 362.00,644.00
             362.00,644.00 361.00,644.00 361.00,644.00
             361.00,644.00 359.00,643.00 359.00,643.00
             359.62,639.40 359.46,638.38 363.00,637.00
             362.63,632.43 362.41,632.08 359.00,629.00
             359.00,629.00 357.00,644.00 357.00,644.00
             357.00,644.00 359.00,619.00 359.00,619.00
             359.00,619.00 357.00,619.00 357.00,619.00
             357.00,619.00 356.00,636.00 356.00,636.00
             356.00,628.73 355.20,621.83 358.00,615.00
             358.00,615.00 360.00,619.00 360.00,619.00
             360.00,619.00 366.00,617.00 366.00,617.00
             366.00,617.00 366.79,627.00 366.79,627.00
             366.36,634.55 362.01,636.79 368.83,643.00
             370.03,630.32 370.37,634.28 368.83,621.17
             367.98,616.00 366.05,609.93 368.00,605.00
             368.00,605.00 369.00,610.00 369.00,610.00
             369.00,610.00 369.00,605.00 369.00,605.00
             369.00,605.00 377.00,603.00 377.00,603.00
             377.00,603.00 377.00,595.00 377.00,595.00
             377.00,595.00 380.00,595.00 380.00,595.00
             380.00,595.00 381.00,591.00 381.00,591.00
             381.00,591.00 381.00,595.00 381.00,595.00
             381.00,595.00 386.00,595.00 386.00,595.00
             386.00,595.00 388.00,593.00 388.00,593.00
             388.00,593.00 389.00,598.00 389.00,598.00
             392.72,598.13 393.83,597.76 396.00,601.00
             396.00,601.00 398.00,601.00 398.00,601.00
             398.00,601.00 399.00,600.00 399.00,600.00
             399.00,600.00 399.00,598.00 399.00,598.00
             399.00,598.00 393.00,593.00 393.00,593.00
             393.00,593.00 396.00,591.00 396.00,591.00
             381.61,583.94 372.40,570.21 377.00,554.00
             377.00,554.00 374.00,556.00 374.00,556.00
             374.00,556.00 378.00,546.00 378.00,546.00 Z
           M 388.00,566.00
           C 388.00,566.00 387.00,566.00 387.00,566.00
             387.00,566.00 388.00,567.00 388.00,567.00
             388.00,567.00 388.00,566.00 388.00,566.00 Z
           M 372.00,566.00
           C 372.00,566.00 376.48,576.00 376.48,576.00
             376.48,576.00 385.00,587.00 385.00,587.00
             385.00,587.00 376.00,583.00 376.00,583.00
             376.00,583.00 373.00,579.00 373.00,579.00
             373.00,579.00 376.00,587.00 376.00,587.00
             369.56,584.49 373.35,578.14 374.00,573.00
             374.00,573.00 372.00,574.00 372.00,574.00
             372.00,574.00 372.00,566.00 372.00,566.00 Z
           M 386.00,568.00
           C 386.00,568.00 385.00,568.00 385.00,568.00
             385.00,568.00 386.00,569.00 386.00,569.00
             386.00,569.00 386.00,568.00 386.00,568.00 Z
           M 388.00,570.00
           C 388.00,570.00 387.00,570.00 387.00,570.00
             387.00,570.00 388.00,571.00 388.00,571.00
             388.00,571.00 388.00,570.00 388.00,570.00 Z
           M 409.00,571.00
           C 409.00,571.00 408.00,571.00 408.00,571.00
             408.00,571.00 409.00,572.00 409.00,572.00
             409.00,572.00 409.00,571.00 409.00,571.00 Z
           M 376.00,578.00
           C 376.00,578.00 375.00,578.00 375.00,578.00
             375.00,578.00 376.00,579.00 376.00,579.00
             376.00,579.00 376.00,578.00 376.00,578.00 Z
           M 384.00,578.00
           C 384.00,578.00 383.00,578.00 383.00,578.00
             383.00,578.00 384.00,579.00 384.00,579.00
             384.00,579.00 384.00,578.00 384.00,578.00 Z
           M 586.00,582.00
           C 586.00,582.00 585.00,582.00 585.00,582.00
             585.00,582.00 586.00,583.00 586.00,583.00
             586.00,583.00 586.00,582.00 586.00,582.00 Z
           M 572.00,590.00
           C 572.00,590.00 571.00,590.00 571.00,590.00
             571.00,590.00 572.00,591.00 572.00,591.00
             572.00,591.00 572.00,590.00 572.00,590.00 Z
           M 571.00,591.00
           C 571.00,591.00 570.00,591.00 570.00,591.00
             570.00,591.00 571.00,592.00 571.00,592.00
             571.00,592.00 571.00,591.00 571.00,591.00 Z
           M 573.00,591.00
           C 573.00,591.00 572.00,591.00 572.00,591.00
             572.00,591.00 573.00,592.00 573.00,592.00
             573.00,592.00 573.00,591.00 573.00,591.00 Z
           M 397.00,592.00
           C 397.02,594.94 398.66,594.76 401.00,594.00
             401.00,594.00 397.00,592.00 397.00,592.00 Z
           M 585.00,592.00
           C 585.00,592.00 584.00,592.00 584.00,592.00
             584.00,592.00 585.00,593.00 585.00,593.00
             585.00,593.00 585.00,592.00 585.00,592.00 Z
           M 413.00,600.00
           C 409.41,598.30 404.98,595.18 401.00,596.00
             404.66,598.08 408.70,601.07 413.00,600.00 Z
           M 588.00,596.00
           C 588.00,596.00 590.00,596.00 590.00,596.00
             590.00,596.00 589.00,601.00 589.00,601.00
             583.54,602.55 578.18,609.43 575.00,614.00
             575.39,607.10 583.62,601.04 588.00,596.00 Z
           M 417.00,602.00
           C 417.00,602.00 413.00,602.00 413.00,602.00
             413.00,602.00 417.00,602.00 417.00,602.00 Z
           M 574.00,601.00
           C 574.00,601.00 573.00,601.00 573.00,601.00
             573.00,601.00 574.00,602.00 574.00,602.00
             574.00,602.00 574.00,601.00 574.00,601.00 Z
           M 401.00,602.00
           C 401.00,602.00 400.00,602.00 400.00,602.00
             400.00,602.00 401.00,603.00 401.00,603.00
             401.00,603.00 401.00,602.00 401.00,602.00 Z
           M 385.00,603.00
           C 385.00,603.00 382.00,603.00 382.00,603.00
             382.00,603.00 382.00,611.00 382.00,611.00
             382.00,611.00 385.00,611.00 385.00,611.00
             385.00,611.00 385.00,603.00 385.00,603.00 Z
           M 418.00,603.00
           C 418.00,603.00 417.00,604.00 417.00,604.00
             417.00,604.00 425.00,605.00 425.00,605.00
             425.00,605.00 418.00,603.00 418.00,603.00 Z
           M 433.00,603.00
           C 433.00,603.00 432.00,603.00 432.00,603.00
             432.00,603.00 433.00,604.00 433.00,604.00
             433.00,604.00 433.00,603.00 433.00,603.00 Z
           M 440.00,610.00
           C 436.05,608.85 428.05,604.76 425.00,608.00
             425.00,608.00 440.00,610.00 440.00,610.00 Z
           M 450.00,611.00
           C 450.00,611.00 449.00,611.00 449.00,611.00
             449.00,611.00 450.00,612.00 450.00,612.00
             450.00,612.00 450.00,611.00 450.00,611.00 Z
           M 357.00,611.00
           C 357.00,611.00 365.00,611.00 365.00,611.00
             365.00,611.00 365.00,614.00 365.00,614.00
             365.00,614.00 359.00,615.00 359.00,615.00
             359.00,615.00 357.00,611.00 357.00,611.00 Z
           M 578.00,618.00
           C 578.00,613.32 580.90,612.17 585.00,611.00
             585.00,611.00 584.00,615.00 584.00,615.00
             584.00,615.00 578.00,618.00 578.00,618.00 Z
           M 463.00,617.00
           C 458.57,615.71 453.52,613.35 449.00,615.00
             453.51,616.02 458.43,618.51 463.00,617.00 Z
           M 479.00,621.00
           C 474.22,620.04 467.42,616.77 463.00,619.00
             468.04,619.78 474.06,622.64 479.00,621.00 Z
           M 584.00,617.00
           C 584.00,617.00 593.00,622.00 593.00,622.00
             587.72,621.82 586.74,621.68 584.00,617.00 Z
           M 577.00,619.00
           C 577.00,619.00 582.00,621.00 582.00,621.00
             582.00,621.00 581.00,624.00 581.00,624.00
             581.00,624.00 584.00,624.00 584.00,624.00
             584.00,624.00 582.00,625.00 582.00,625.00
             582.00,625.00 582.00,626.00 582.00,626.00
             582.00,626.00 585.00,625.00 585.00,625.00
             585.00,625.00 586.00,631.00 586.00,631.00
             581.15,627.52 577.99,625.11 577.00,619.00 Z
           M 580.00,621.00
           C 580.00,621.00 579.00,621.00 579.00,621.00
             579.00,621.00 580.00,622.00 580.00,622.00
             580.00,622.00 580.00,621.00 580.00,621.00 Z
           M 489.00,623.00
           C 484.72,622.24 482.73,621.27 479.00,624.00
             479.00,624.00 489.00,623.00 489.00,623.00 Z
           M 547.00,622.00
           C 547.00,622.00 537.00,623.00 537.00,623.00
             537.00,623.00 547.00,622.00 547.00,622.00 Z
           M 584.00,621.00
           C 584.00,621.00 585.00,621.00 585.00,621.00
             585.00,621.00 584.00,622.00 584.00,622.00
             584.00,622.00 584.00,621.00 584.00,621.00 Z
           M 519.00,623.00
           C 519.00,623.00 513.00,624.00 513.00,624.00
             513.00,624.00 519.00,623.00 519.00,623.00 Z
           M 569.00,623.00
           C 569.00,623.00 568.00,623.00 568.00,623.00
             568.00,623.00 569.00,624.00 569.00,624.00
             569.00,624.00 569.00,623.00 569.00,623.00 Z
           M 506.00,625.00
           C 500.34,624.95 493.68,622.56 489.00,626.00
             491.58,625.67 494.85,624.24 496.00,627.00
             496.00,627.00 506.00,625.00 506.00,625.00 Z
           M 562.00,626.00
           C 562.00,626.00 561.00,626.00 561.00,626.00
             561.00,626.00 562.00,627.00 562.00,627.00
             562.00,627.00 562.00,626.00 562.00,626.00 Z
           M 393.00,642.00
           C 387.43,640.59 382.28,633.03 372.00,640.00
             381.94,641.52 389.00,654.37 387.78,664.00
             387.38,667.08 385.27,671.04 384.00,674.00
             390.21,672.86 392.98,673.16 396.00,667.00
             402.48,670.84 400.57,672.14 403.00,678.00
             403.00,678.00 403.00,674.00 403.00,674.00
             403.20,659.82 415.54,656.01 425.82,664.30
             434.53,671.34 435.50,679.39 431.00,689.00
             437.39,685.99 439.38,683.80 440.14,677.00
             440.69,673.88 441.11,673.02 440.14,670.00
             440.14,670.00 439.00,673.00 439.00,673.00
             439.40,671.16 440.36,667.93 439.94,666.17
             439.09,662.64 431.16,656.94 428.00,655.00
             428.00,655.00 424.00,656.00 424.00,656.00
             424.00,656.00 425.00,654.00 425.00,654.00
             425.00,654.00 409.00,654.00 409.00,654.00
             404.17,657.32 402.72,653.57 398.00,651.00
             398.00,651.00 399.00,649.00 399.00,649.00
             399.00,649.00 395.00,644.00 395.00,644.00
             395.00,644.00 393.00,645.00 393.00,645.00
             393.00,645.00 393.00,642.00 393.00,642.00 Z
           M 371.00,640.00
           C 371.00,640.00 370.00,640.00 370.00,640.00
             370.00,640.00 371.00,641.00 371.00,641.00
             371.00,641.00 371.00,640.00 371.00,640.00 Z
           M 593.00,640.00
           C 593.00,640.00 592.00,640.00 592.00,640.00
             592.00,640.00 593.00,641.00 593.00,641.00
             593.00,641.00 593.00,640.00 593.00,640.00 Z
           M 375.00,642.00
           C 365.67,645.88 366.33,654.83 369.85,663.00
             371.91,667.77 376.67,671.88 382.00,670.00
             382.00,670.00 376.00,668.00 376.00,668.00
             376.00,668.00 377.00,666.00 377.00,666.00
             372.70,661.77 369.82,655.09 371.65,649.01
             371.65,649.01 375.00,642.00 375.00,642.00 Z
           M 366.00,651.00
           C 366.00,651.00 365.00,651.00 365.00,651.00
             365.00,651.00 366.00,652.00 366.00,652.00
             366.00,652.00 366.00,651.00 366.00,651.00 Z
           M 553.00,654.00
           C 553.00,654.00 552.00,654.00 552.00,654.00
             552.00,654.00 553.00,655.00 553.00,655.00
             553.00,655.00 553.00,654.00 553.00,654.00 Z
           M 552.00,655.00
           C 552.00,655.00 551.00,655.00 551.00,655.00
             551.00,655.00 552.00,656.00 552.00,656.00
             552.00,656.00 552.00,655.00 552.00,655.00 Z
           M 549.00,658.00
           C 549.00,658.00 548.00,658.00 548.00,658.00
             548.00,658.00 549.00,659.00 549.00,659.00
             549.00,659.00 549.00,658.00 549.00,658.00 Z
           M 439.00,662.00
           C 439.00,662.00 438.00,662.00 438.00,662.00
             438.00,662.00 439.00,663.00 439.00,663.00
             439.00,663.00 439.00,662.00 439.00,662.00 Z
           M 545.00,662.00
           C 545.00,662.00 544.00,662.00 544.00,662.00
             544.00,662.00 545.00,663.00 545.00,663.00
             545.00,663.00 545.00,662.00 545.00,662.00 Z
           M 369.00,663.00
           C 369.00,663.00 368.00,663.00 368.00,663.00
             368.00,663.00 369.00,664.00 369.00,664.00
             369.00,664.00 369.00,663.00 369.00,663.00 Z
           M 544.00,663.00
           C 544.00,663.00 543.00,663.00 543.00,663.00
             543.00,663.00 544.00,664.00 544.00,664.00
             544.00,664.00 544.00,663.00 544.00,663.00 Z
           M 412.00,664.00
           C 412.00,664.00 411.00,664.00 411.00,664.00
             411.00,664.00 412.00,665.00 412.00,665.00
             412.00,665.00 412.00,664.00 412.00,664.00 Z
           M 365.00,665.00
           C 365.00,665.00 364.00,665.00 364.00,665.00
             364.00,665.00 365.00,666.00 365.00,666.00
             365.00,666.00 365.00,665.00 365.00,665.00 Z
           M 370.00,665.00
           C 370.00,665.00 369.00,665.00 369.00,665.00
             369.00,665.00 370.00,666.00 370.00,666.00
             370.00,666.00 370.00,665.00 370.00,665.00 Z
           M 542.00,665.00
           C 542.00,665.00 541.00,665.00 541.00,665.00
             541.00,665.00 542.00,666.00 542.00,666.00
             542.00,666.00 542.00,665.00 542.00,665.00 Z
           M 367.00,666.00
           C 367.00,666.00 366.00,666.00 366.00,666.00
             366.00,666.00 367.00,667.00 367.00,667.00
             367.00,667.00 367.00,666.00 367.00,666.00 Z
           M 541.00,666.00
           C 541.00,666.00 540.00,666.00 540.00,666.00
             540.00,666.00 541.00,667.00 541.00,667.00
             541.00,667.00 541.00,666.00 541.00,666.00 Z
           M 385.00,667.00
           C 385.00,667.00 384.00,667.00 384.00,667.00
             384.00,667.00 385.00,668.00 385.00,668.00
             385.00,668.00 385.00,667.00 385.00,667.00 Z
           M 408.00,667.00
           C 399.52,676.22 412.00,693.22 423.00,689.00
             423.00,689.00 413.30,684.61 413.30,684.61
             413.30,684.61 407.00,679.00 407.00,679.00
             407.00,679.00 408.00,667.00 408.00,667.00 Z
           M 372.00,668.00
           C 372.00,668.00 371.00,668.00 371.00,668.00
             371.00,668.00 372.00,669.00 372.00,669.00
             372.00,669.00 372.00,668.00 372.00,668.00 Z
           M 370.00,669.00
           C 370.00,669.00 369.00,669.00 369.00,669.00
             369.00,669.00 370.00,670.00 370.00,670.00
             370.00,670.00 370.00,669.00 370.00,669.00 Z
           M 373.00,669.00
           C 373.00,669.00 372.00,669.00 372.00,669.00
             372.00,669.00 373.00,670.00 373.00,670.00
             373.00,670.00 373.00,669.00 373.00,669.00 Z
           M 371.00,670.00
           C 371.00,670.00 370.00,670.00 370.00,670.00
             370.00,670.00 371.00,671.00 371.00,671.00
             371.00,671.00 371.00,670.00 371.00,670.00 Z
           M 374.00,670.00
           C 374.00,670.00 373.00,670.00 373.00,670.00
             373.00,670.00 374.00,671.00 374.00,671.00
             374.00,671.00 374.00,670.00 374.00,670.00 Z
           M 372.00,671.00
           C 372.00,671.00 371.00,671.00 371.00,671.00
             371.00,671.00 372.00,672.00 372.00,672.00
             372.00,672.00 372.00,671.00 372.00,671.00 Z
           M 396.00,671.00
           C 396.00,671.00 395.00,671.00 395.00,671.00
             395.00,671.00 396.00,672.00 396.00,672.00
             396.00,672.00 396.00,671.00 396.00,671.00 Z
           M 376.00,672.00
           C 376.00,672.00 375.00,672.00 375.00,672.00
             375.00,672.00 376.00,673.00 376.00,673.00
             376.00,673.00 376.00,672.00 376.00,672.00 Z
           M 393.00,673.00
           C 393.00,673.00 392.00,673.00 392.00,673.00
             392.00,673.00 393.00,674.00 393.00,674.00
             393.00,674.00 393.00,673.00 393.00,673.00 Z
           M 375.00,674.00
           C 375.00,674.00 374.00,674.00 374.00,674.00
             374.00,674.00 375.00,675.00 375.00,675.00
             375.00,675.00 375.00,674.00 375.00,674.00 Z
           M 533.00,674.00
           C 533.00,674.00 532.00,674.00 532.00,674.00
             532.00,674.00 533.00,675.00 533.00,675.00
             533.00,675.00 533.00,674.00 533.00,674.00 Z
           M 378.00,677.00
           C 378.00,677.00 377.00,677.00 377.00,677.00
             377.00,677.00 378.00,678.00 378.00,678.00
             378.00,678.00 378.00,677.00 378.00,677.00 Z
           M 379.00,678.00
           C 379.00,678.00 378.00,678.00 378.00,678.00
             378.00,678.00 379.00,679.00 379.00,679.00
             379.00,679.00 379.00,678.00 379.00,678.00 Z
           M 529.00,678.00
           C 529.00,678.00 528.00,678.00 528.00,678.00
             528.00,678.00 529.00,679.00 529.00,679.00
             529.00,679.00 529.00,678.00 529.00,678.00 Z
           M 380.00,679.00
           C 380.00,679.00 379.00,679.00 379.00,679.00
             379.00,679.00 380.00,680.00 380.00,680.00
             380.00,680.00 380.00,679.00 380.00,679.00 Z
           M 404.00,679.00
           C 404.00,679.00 403.00,679.00 403.00,679.00
             403.00,679.00 404.00,680.00 404.00,680.00
             404.00,680.00 404.00,679.00 404.00,679.00 Z
           M 528.00,679.00
           C 528.00,679.00 527.00,679.00 527.00,679.00
             527.00,679.00 528.00,680.00 528.00,680.00
             528.00,680.00 528.00,679.00 528.00,679.00 Z
           M 381.00,680.00
           C 381.00,680.00 380.00,680.00 380.00,680.00
             380.00,680.00 381.00,681.00 381.00,681.00
             381.00,681.00 381.00,680.00 381.00,680.00 Z
           M 382.00,681.00
           C 382.00,681.00 381.00,681.00 381.00,681.00
             381.00,681.00 382.00,682.00 382.00,682.00
             382.00,682.00 382.00,681.00 382.00,681.00 Z
           M 526.00,681.00
           C 526.00,681.00 525.00,681.00 525.00,681.00
             525.00,681.00 526.00,682.00 526.00,682.00
             526.00,682.00 526.00,681.00 526.00,681.00 Z
           M 383.00,682.00
           C 383.00,682.00 382.00,682.00 382.00,682.00
             382.00,682.00 383.00,683.00 383.00,683.00
             383.00,683.00 383.00,682.00 383.00,682.00 Z
           M 525.00,682.00
           C 525.00,682.00 524.00,682.00 524.00,682.00
             524.00,682.00 525.00,683.00 525.00,683.00
             525.00,683.00 525.00,682.00 525.00,682.00 Z
           M 406.00,683.00
           C 406.00,683.00 405.00,683.00 405.00,683.00
             405.00,683.00 406.00,684.00 406.00,684.00
             406.00,684.00 406.00,683.00 406.00,683.00 Z
           M 522.00,685.00
           C 522.00,685.00 521.00,685.00 521.00,685.00
             521.00,685.00 522.00,686.00 522.00,686.00
             522.00,686.00 522.00,685.00 522.00,685.00 Z
           M 387.00,686.00
           C 387.00,686.00 386.00,686.00 386.00,686.00
             386.00,686.00 387.00,687.00 387.00,687.00
             387.00,687.00 387.00,686.00 387.00,686.00 Z
           M 391.00,686.00
           C 391.00,686.00 390.00,686.00 390.00,686.00
             390.00,686.00 391.00,687.00 391.00,687.00
             391.00,687.00 391.00,686.00 391.00,686.00 Z
           M 408.00,686.00
           C 408.00,686.00 407.00,686.00 407.00,686.00
             407.00,686.00 408.00,687.00 408.00,687.00
             408.00,687.00 408.00,686.00 408.00,686.00 Z
           M 438.00,686.00
           C 438.00,686.00 437.00,686.00 437.00,686.00
             437.00,686.00 438.00,687.00 438.00,687.00
             438.00,687.00 438.00,686.00 438.00,686.00 Z
           M 388.00,687.00
           C 388.00,687.00 387.00,687.00 387.00,687.00
             387.00,687.00 388.00,688.00 388.00,688.00
             388.00,688.00 388.00,687.00 388.00,687.00 Z
           M 409.00,687.00
           C 409.00,687.00 408.00,687.00 408.00,687.00
             408.00,687.00 409.00,688.00 409.00,688.00
             409.00,688.00 409.00,687.00 409.00,687.00 Z
           M 389.00,688.00
           C 389.00,688.00 388.00,688.00 388.00,688.00
             388.00,688.00 389.00,689.00 389.00,689.00
             389.00,689.00 389.00,688.00 389.00,688.00 Z
           M 392.00,688.00
           C 392.00,688.00 391.00,688.00 391.00,688.00
             391.00,688.00 392.00,689.00 392.00,689.00
             392.00,689.00 392.00,688.00 392.00,688.00 Z
           M 410.00,688.00
           C 410.00,688.00 409.00,688.00 409.00,688.00
             409.00,688.00 410.00,689.00 410.00,689.00
             410.00,689.00 410.00,688.00 410.00,688.00 Z
           M 431.00,689.00
           C 431.00,689.00 430.00,689.00 430.00,689.00
             430.00,689.00 431.00,690.00 431.00,690.00
             431.00,690.00 431.00,689.00 431.00,689.00 Z
           M 413.00,690.00
           C 413.00,690.00 412.00,690.00 412.00,690.00
             412.00,690.00 413.00,691.00 413.00,691.00
             413.00,691.00 413.00,690.00 413.00,690.00 Z
           M 430.00,690.00
           C 430.00,690.00 429.00,690.00 429.00,690.00
             429.00,690.00 430.00,691.00 430.00,691.00
             430.00,691.00 430.00,690.00 430.00,690.00 Z
           M 428.00,691.00
           C 428.00,691.00 423.00,693.00 423.00,693.00
             423.00,693.00 428.00,691.00 428.00,691.00 Z
           M 586.00,691.00
           C 586.00,691.00 586.00,697.00 586.00,697.00
             586.00,697.00 586.00,691.00 586.00,691.00 Z
           M 514.00,693.00
           C 514.00,693.00 513.00,693.00 513.00,693.00
             513.00,693.00 514.00,694.00 514.00,694.00
             514.00,694.00 514.00,693.00 514.00,693.00 Z
           M 398.00,694.00
           C 398.00,694.00 397.00,694.00 397.00,694.00
             397.00,694.00 398.00,695.00 398.00,695.00
             398.00,695.00 398.00,694.00 398.00,694.00 Z
           M 396.00,695.00
           C 396.00,695.00 395.00,695.00 395.00,695.00
             395.00,695.00 396.00,696.00 396.00,696.00
             396.00,696.00 396.00,695.00 396.00,695.00 Z
           M 400.00,696.00
           C 400.00,696.00 399.00,696.00 399.00,696.00
             399.00,696.00 400.00,697.00 400.00,697.00
             400.00,697.00 400.00,696.00 400.00,696.00 Z
           M 511.00,696.00
           C 511.00,696.00 510.00,696.00 510.00,696.00
             510.00,696.00 511.00,697.00 511.00,697.00
             511.00,697.00 511.00,696.00 511.00,696.00 Z
           M 394.00,698.00
           C 394.00,698.00 393.00,698.00 393.00,698.00
             393.00,698.00 394.00,699.00 394.00,699.00
             394.00,699.00 394.00,698.00 394.00,698.00 Z
           M 508.00,699.00
           C 508.00,699.00 506.00,699.00 506.00,699.00
             506.00,699.00 505.00,702.00 505.00,702.00
             505.00,702.00 508.00,699.00 508.00,699.00 Z
           M 406.00,702.00
           C 406.00,702.00 405.00,702.00 405.00,702.00
             405.00,702.00 406.00,703.00 406.00,703.00
             406.00,703.00 406.00,702.00 406.00,702.00 Z
           M 405.00,704.00
           C 405.00,704.00 404.00,704.00 404.00,704.00
             404.00,704.00 405.00,705.00 405.00,705.00
             405.00,705.00 405.00,704.00 405.00,704.00 Z
           M 503.00,704.00
           C 503.00,704.00 499.00,708.00 499.00,708.00
             499.00,708.00 503.00,704.00 503.00,704.00 Z
           M 403.00,705.00
           C 403.00,705.00 402.00,705.00 402.00,705.00
             402.00,705.00 403.00,706.00 403.00,706.00
             403.00,706.00 403.00,705.00 403.00,705.00 Z
           M 406.00,705.00
           C 406.00,705.00 405.00,705.00 405.00,705.00
             405.00,705.00 406.00,706.00 406.00,706.00
             406.00,706.00 406.00,705.00 406.00,705.00 Z
           M 402.00,706.00
           C 402.00,706.00 401.00,706.00 401.00,706.00
             401.00,706.00 402.00,707.00 402.00,707.00
             402.00,707.00 402.00,706.00 402.00,706.00 Z
           M 407.00,706.00
           C 407.00,706.00 406.00,706.00 406.00,706.00
             406.00,706.00 407.00,707.00 407.00,707.00
             407.00,707.00 407.00,706.00 407.00,706.00 Z
           M 410.00,709.00
           C 410.00,709.00 409.00,709.00 409.00,709.00
             409.00,709.00 410.00,710.00 410.00,710.00
             410.00,710.00 410.00,709.00 410.00,709.00 Z
           M 411.00,710.00
           C 411.00,710.00 410.00,710.00 410.00,710.00
             410.00,710.00 411.00,711.00 411.00,711.00
             411.00,711.00 411.00,710.00 411.00,710.00 Z
           M 497.00,710.00
           C 497.00,710.00 494.00,713.00 494.00,713.00
             494.00,713.00 497.00,710.00 497.00,710.00 Z
           M 411.00,713.00
           C 411.00,713.00 410.00,713.00 410.00,713.00
             410.00,713.00 411.00,714.00 411.00,714.00
             411.00,714.00 411.00,713.00 411.00,713.00 Z
           M 414.00,713.00
           C 414.00,713.00 413.00,713.00 413.00,713.00
             413.00,713.00 414.00,714.00 414.00,714.00
             414.00,714.00 414.00,713.00 414.00,713.00 Z
           M 410.00,714.00
           C 410.00,714.00 409.00,714.00 409.00,714.00
             409.00,714.00 410.00,715.00 410.00,715.00
             410.00,715.00 410.00,714.00 410.00,714.00 Z
           M 415.00,714.00
           C 415.00,714.00 414.00,714.00 414.00,714.00
             414.00,714.00 415.00,715.00 415.00,715.00
             415.00,715.00 415.00,714.00 415.00,714.00 Z
           M 492.00,715.00
           C 492.00,715.00 491.00,715.00 491.00,715.00
             491.00,715.00 492.00,716.00 492.00,716.00
             492.00,716.00 492.00,715.00 492.00,715.00 Z
           M 418.00,717.00
           C 418.00,717.00 417.00,717.00 417.00,717.00
             417.00,717.00 418.00,718.00 418.00,718.00
             418.00,718.00 418.00,717.00 418.00,717.00 Z
           M 419.00,718.00
           C 419.00,718.00 418.00,718.00 418.00,718.00
             418.00,718.00 419.00,719.00 419.00,719.00
             419.00,719.00 419.00,718.00 419.00,718.00 Z
           M 422.00,718.00
           C 422.00,718.00 421.00,718.00 421.00,718.00
             421.00,718.00 422.00,719.00 422.00,719.00
             422.00,719.00 422.00,718.00 422.00,718.00 Z
           M 487.00,720.00
           C 487.00,720.00 486.00,720.00 486.00,720.00
             486.00,720.00 487.00,721.00 487.00,721.00
             487.00,721.00 487.00,720.00 487.00,720.00 Z
           M 419.00,721.00
           C 419.00,721.00 418.00,721.00 418.00,721.00
             418.00,721.00 419.00,722.00 419.00,722.00
             419.00,722.00 419.00,721.00 419.00,721.00 Z
           M 422.00,721.00
           C 422.00,721.00 421.00,721.00 421.00,721.00
             421.00,721.00 422.00,722.00 422.00,722.00
             422.00,722.00 422.00,721.00 422.00,721.00 Z
           M 418.00,722.00
           C 418.00,722.00 417.00,722.00 417.00,722.00
             417.00,722.00 418.00,723.00 418.00,723.00
             418.00,723.00 418.00,722.00 418.00,722.00 Z
           M 423.00,722.00
           C 423.00,722.00 422.00,722.00 422.00,722.00
             422.00,722.00 423.00,723.00 423.00,723.00
             423.00,723.00 423.00,722.00 423.00,722.00 Z
           M 484.00,723.00
           C 484.00,723.00 483.00,723.00 483.00,723.00
             483.00,723.00 484.00,724.00 484.00,724.00
             484.00,724.00 484.00,723.00 484.00,723.00 Z
           M 426.00,725.00
           C 426.00,725.00 425.00,725.00 425.00,725.00
             425.00,725.00 426.00,726.00 426.00,726.00
             426.00,726.00 426.00,725.00 426.00,725.00 Z
           M 427.00,726.00
           C 427.00,726.00 426.00,726.00 426.00,726.00
             426.00,726.00 427.00,727.00 427.00,727.00
             427.00,727.00 427.00,726.00 427.00,726.00 Z
           M 427.00,729.00
           C 427.00,729.00 426.00,729.00 426.00,729.00
             426.00,729.00 427.00,730.00 427.00,730.00
             427.00,730.00 427.00,729.00 427.00,729.00 Z
           M 430.00,729.00
           C 430.00,729.00 429.00,729.00 429.00,729.00
             429.00,729.00 430.00,730.00 430.00,730.00
             430.00,730.00 430.00,729.00 430.00,729.00 Z
           M 426.00,730.00
           C 426.00,730.00 425.00,730.00 425.00,730.00
             425.00,730.00 426.00,731.00 426.00,731.00
             426.00,731.00 426.00,730.00 426.00,730.00 Z
           M 431.00,730.00
           C 431.00,730.00 430.00,730.00 430.00,730.00
             430.00,730.00 431.00,731.00 431.00,731.00
             431.00,731.00 431.00,730.00 431.00,730.00 Z
           M 477.00,730.00
           C 477.00,730.00 476.00,730.00 476.00,730.00
             476.00,730.00 477.00,731.00 477.00,731.00
             477.00,731.00 477.00,730.00 477.00,730.00 Z
           M 434.00,733.00
           C 434.00,733.00 433.00,733.00 433.00,733.00
             433.00,733.00 434.00,734.00 434.00,734.00
             434.00,734.00 434.00,733.00 434.00,733.00 Z
           M 435.00,734.00
           C 435.00,734.00 434.00,734.00 434.00,734.00
             434.00,734.00 435.00,735.00 435.00,735.00
             435.00,735.00 435.00,734.00 435.00,734.00 Z
           M 438.00,734.00
           C 438.00,734.00 437.00,734.00 437.00,734.00
             437.00,734.00 438.00,735.00 438.00,735.00
             438.00,735.00 438.00,734.00 438.00,734.00 Z
           M 473.00,734.00
           C 473.00,734.00 472.00,734.00 472.00,734.00
             472.00,734.00 473.00,735.00 473.00,735.00
             473.00,735.00 473.00,734.00 473.00,734.00 Z
           M 435.00,737.00
           C 435.00,737.00 434.00,737.00 434.00,737.00
             434.00,737.00 435.00,738.00 435.00,738.00
             435.00,738.00 435.00,737.00 435.00,737.00 Z
           M 438.00,737.00
           C 438.00,737.00 437.00,737.00 437.00,737.00
             437.00,737.00 438.00,738.00 438.00,738.00
             438.00,738.00 438.00,737.00 438.00,737.00 Z
           M 434.00,738.00
           C 434.00,738.00 433.00,738.00 433.00,738.00
             433.00,738.00 434.00,739.00 434.00,739.00
             434.00,739.00 434.00,738.00 434.00,738.00 Z
           M 439.00,738.00
           C 439.00,738.00 438.00,738.00 438.00,738.00
             438.00,738.00 439.00,739.00 439.00,739.00
             439.00,739.00 439.00,738.00 439.00,738.00 Z
           M 469.00,738.00
           C 469.00,738.00 468.00,738.00 468.00,738.00
             468.00,738.00 469.00,739.00 469.00,739.00
             469.00,739.00 469.00,738.00 469.00,738.00 Z
           M 441.00,739.00
           C 441.00,739.00 440.00,739.00 440.00,739.00
             440.00,739.00 441.00,740.00 441.00,740.00
             441.00,740.00 441.00,739.00 441.00,739.00 Z
           M 442.00,741.00
           C 442.00,741.00 441.00,741.00 441.00,741.00
             441.00,741.00 442.00,742.00 442.00,742.00
             442.00,742.00 442.00,741.00 442.00,741.00 Z
           M 443.00,742.00
           C 443.00,742.00 442.00,742.00 442.00,742.00
             442.00,742.00 443.00,743.00 443.00,743.00
             443.00,743.00 443.00,742.00 443.00,742.00 Z
           M 446.00,742.00
           C 446.00,742.00 445.00,742.00 445.00,742.00
             445.00,742.00 446.00,743.00 446.00,743.00
             446.00,743.00 446.00,742.00 446.00,742.00 Z
           M 443.00,745.00
           C 443.00,745.00 442.00,745.00 442.00,745.00
             442.00,745.00 443.00,746.00 443.00,746.00
             443.00,746.00 443.00,745.00 443.00,745.00 Z
           M 446.00,745.00
           C 446.00,745.00 445.00,745.00 445.00,745.00
             445.00,745.00 446.00,746.00 446.00,746.00
             446.00,746.00 446.00,745.00 446.00,745.00 Z
           M 442.00,746.00
           C 442.00,746.00 441.00,746.00 441.00,746.00
             441.00,746.00 442.00,747.00 442.00,747.00
             442.00,747.00 442.00,746.00 442.00,746.00 Z
           M 447.00,746.00
           C 447.00,746.00 446.00,746.00 446.00,746.00
             446.00,746.00 447.00,747.00 447.00,747.00
             447.00,747.00 447.00,746.00 447.00,746.00 Z
           M 461.00,746.00
           C 461.00,746.00 460.00,746.00 460.00,746.00
             460.00,746.00 461.00,747.00 461.00,747.00
             461.00,747.00 461.00,746.00 461.00,746.00 Z
           M 450.00,749.00
           C 450.00,749.00 449.00,749.00 449.00,749.00
             449.00,749.00 450.00,750.00 450.00,750.00
             450.00,750.00 450.00,749.00 450.00,749.00 Z
           M 451.00,750.00
           C 451.00,750.00 450.00,750.00 450.00,750.00
             450.00,750.00 451.00,751.00 451.00,751.00
             451.00,751.00 451.00,750.00 451.00,750.00 Z
           M 452.00,751.00
           C 452.00,751.00 452.00,755.00 452.00,755.00
             452.00,755.00 455.00,752.00 455.00,752.00
             455.00,752.00 452.00,751.00 452.00,751.00 Z
           M 450.00,753.00
           C 450.00,753.00 449.00,753.00 449.00,753.00
             449.00,753.00 450.00,754.00 450.00,754.00
             450.00,754.00 450.00,753.00 450.00,753.00 Z
           M 455.00,754.00
           C 455.00,754.00 454.00,754.00 454.00,754.00
             454.00,754.00 455.00,755.00 455.00,755.00
             455.00,755.00 455.00,754.00 455.00,754.00 Z
           M 442.00,755.00
           C 442.00,755.00 441.00,755.00 441.00,755.00
             441.00,755.00 442.00,756.00 442.00,756.00
             442.00,756.00 442.00,755.00 442.00,755.00 Z
           M 417.00,757.00
           C 417.00,757.00 416.00,757.00 416.00,757.00
             416.00,757.00 417.00,758.00 417.00,758.00
             417.00,758.00 417.00,757.00 417.00,757.00 Z
           M 450.00,757.00
           C 450.00,757.00 449.00,757.00 449.00,757.00
             449.00,757.00 450.00,758.00 450.00,758.00
             450.00,758.00 450.00,757.00 450.00,757.00 Z
           M 458.00,757.00
           C 458.00,757.00 457.00,757.00 457.00,757.00
             457.00,757.00 458.00,758.00 458.00,758.00
             458.00,758.00 458.00,757.00 458.00,757.00 Z
           M 459.00,758.00
           C 459.00,758.00 458.00,758.00 458.00,758.00
             458.00,758.00 459.00,759.00 459.00,759.00
             459.00,759.00 459.00,758.00 459.00,758.00 Z
           M 462.00,758.00
           C 462.00,758.00 461.00,758.00 461.00,758.00
             461.00,758.00 462.00,759.00 462.00,759.00
             462.00,759.00 462.00,758.00 462.00,758.00 Z
           M 463.00,759.00
           C 463.00,759.00 462.00,759.00 462.00,759.00
             462.00,759.00 463.00,760.00 463.00,760.00
             463.00,760.00 463.00,759.00 463.00,759.00 Z
           M 459.00,761.00
           C 459.00,761.00 458.00,761.00 458.00,761.00
             458.00,761.00 459.00,762.00 459.00,762.00
             459.00,762.00 459.00,761.00 459.00,761.00 Z
           M 462.00,761.00
           C 462.00,761.00 461.00,761.00 461.00,761.00
             461.00,761.00 462.00,762.00 462.00,762.00
             462.00,762.00 462.00,761.00 462.00,761.00 Z
           M 445.00,762.00
           C 445.00,762.00 444.00,762.00 444.00,762.00
             444.00,762.00 445.00,763.00 445.00,763.00
             445.00,763.00 445.00,762.00 445.00,762.00 Z
           M 458.00,762.00
           C 458.00,762.00 457.00,762.00 457.00,762.00
             457.00,762.00 458.00,763.00 458.00,763.00
             458.00,763.00 458.00,762.00 458.00,762.00 Z
           M 463.00,762.00
           C 463.00,762.00 462.00,762.00 462.00,762.00
             462.00,762.00 463.00,763.00 463.00,763.00
             463.00,763.00 463.00,762.00 463.00,762.00 Z
           M 465.00,763.00
           C 465.00,763.00 464.00,763.00 464.00,763.00
             464.00,763.00 465.00,764.00 465.00,764.00
             465.00,764.00 465.00,763.00 465.00,763.00 Z
           M 466.00,765.00
           C 466.00,765.00 465.00,765.00 465.00,765.00
             465.00,765.00 466.00,766.00 466.00,766.00
             466.00,766.00 466.00,765.00 466.00,765.00 Z
           M 469.00,765.00
           C 469.00,765.00 468.00,765.00 468.00,765.00
             468.00,765.00 469.00,766.00 469.00,766.00
             469.00,766.00 469.00,765.00 469.00,765.00 Z
           M 467.00,766.00
           C 467.00,766.00 466.00,766.00 466.00,766.00
             466.00,766.00 467.00,767.00 467.00,767.00
             467.00,767.00 467.00,766.00 467.00,766.00 Z
           M 470.00,766.00
           C 470.00,766.00 469.00,766.00 469.00,766.00
             469.00,766.00 470.00,767.00 470.00,767.00
             470.00,767.00 470.00,766.00 470.00,766.00 Z
           M 467.00,769.00
           C 467.00,769.00 466.00,769.00 466.00,769.00
             466.00,769.00 467.00,770.00 467.00,770.00
             467.00,770.00 467.00,769.00 467.00,769.00 Z
           M 470.00,769.00
           C 470.00,769.00 469.00,769.00 469.00,769.00
             469.00,769.00 470.00,770.00 470.00,770.00
             470.00,770.00 470.00,769.00 470.00,769.00 Z
           M 466.00,770.00
           C 466.00,770.00 465.00,770.00 465.00,770.00
             465.00,770.00 466.00,771.00 466.00,771.00
             466.00,771.00 466.00,770.00 466.00,770.00 Z
           M 471.00,770.00
           C 471.00,770.00 470.00,770.00 470.00,770.00
             470.00,770.00 471.00,771.00 471.00,771.00
             471.00,771.00 471.00,770.00 471.00,770.00 Z
           M 478.00,774.00
           C 478.00,774.00 477.00,774.00 477.00,774.00
             477.00,774.00 478.00,775.00 478.00,775.00
             478.00,775.00 478.00,774.00 478.00,774.00 Z" />
</svg>
