<?xml version="1.0" encoding="UTF-8" standalone="no"?>
<!DOCTYPE svg PUBLIC "-//W3C//DTD SVG 20010904//EN"
              "http://www.w3.org/TR/2001/REC-SVG-20010904/DTD/svg10.dtd">

<svg xmlns="http://www.w3.org/2000/svg"
     width="266.362mm" height="227.246mm"
     viewBox="0 0 3146 2684">
  <path id="التحديد #2"
        fill="none" stroke="black" stroke-width="1"
        d="M 1538.00,511.42
           C 1548.78,510.11 1553.29,511.98 1563.00,512.00
             1576.79,512.02 1590.56,514.61 1604.00,517.58
             1691.37,536.84 1761.06,600.13 1789.33,685.00
             1794.85,701.58 1801.79,730.76 1802.00,748.00
             1802.00,748.00 1802.00,781.00 1802.00,781.00
             1801.97,801.57 1794.08,835.55 1786.95,855.00
             1758.43,932.78 1693.05,992.00 1613.00,1013.12
             1586.33,1020.15 1562.35,1021.32 1535.00,1021.00
             1535.00,1021.00 1525.00,1020.08 1525.00,1020.08
             1500.93,1018.16 1477.45,1013.18 1455.00,1004.20
             1416.72,988.89 1383.89,966.69 1356.17,936.00
             1324.34,900.76 1302.39,852.95 1295.43,806.00
             1294.05,796.73 1293.04,787.37 1293.00,778.00
             1293.00,778.00 1292.18,765.00 1292.18,765.00
             1292.18,765.00 1293.00,749.00 1293.00,749.00
             1293.00,749.00 1294.72,732.00 1294.72,732.00
             1298.29,704.53 1306.17,677.96 1318.26,653.00
             1349.02,589.48 1406.72,541.98 1474.00,521.72
             1484.25,518.63 1504.48,514.18 1515.00,513.17
             1515.00,513.17 1538.00,511.42 1538.00,511.42 Z
           M 1977.00,872.00
           C 1979.52,866.68 1983.88,863.12 1988.00,859.00
             1988.00,859.00 2006.96,840.00 2006.96,840.00
             2006.96,840.00 2015.04,831.00 2015.04,831.00
             2015.04,831.00 2079.00,767.00 2079.00,767.00
             2079.00,767.00 2103.00,743.00 2103.00,743.00
             2105.25,740.76 2109.49,735.47 2113.00,736.34
             2115.03,736.83 2122.13,743.34 2124.00,745.09
             2124.00,745.09 2149.00,770.00 2149.00,770.00
             2183.00,804.00 2214.33,843.99 2241.00,884.00
             2304.48,979.22 2352.56,1090.74 2371.57,1204.00
             2371.57,1204.00 2379.16,1266.00 2379.16,1266.00
             2379.16,1266.00 2383.00,1307.00 2383.00,1307.00
             2383.00,1307.00 2384.00,1324.00 2384.00,1324.00
             2384.00,1324.00 2384.00,1378.00 2384.00,1378.00
             2384.00,1378.00 2383.00,1398.00 2383.00,1398.00
             2383.00,1398.00 2382.09,1408.00 2382.09,1408.00
             2382.09,1408.00 2378.17,1446.00 2378.17,1446.00
             2371.85,1509.20 2356.97,1571.19 2335.69,1631.00
             2313.37,1693.72 2285.10,1753.18 2248.66,1809.00
             2148.84,1961.88 1997.79,2079.36 1826.00,2140.69
             1763.96,2162.84 1703.54,2176.61 1638.00,2183.17
             1638.00,2183.17 1591.00,2187.00 1591.00,2187.00
             1591.00,2187.00 1576.00,2188.00 1576.00,2188.00
             1576.00,2188.00 1520.00,2188.00 1520.00,2188.00
             1520.00,2188.00 1500.00,2187.00 1500.00,2187.00
             1500.00,2187.00 1490.00,2186.09 1490.00,2186.09
             1490.00,2186.09 1451.00,2182.17 1451.00,2182.17
             1396.79,2176.75 1336.55,2163.60 1285.00,2145.92
             1218.09,2122.98 1155.60,2094.70 1096.00,2056.31
             1053.69,2029.05 1019.35,2001.78 982.00,1968.17
             982.00,1968.17 959.00,1947.00 959.00,1947.00
             959.00,1947.00 914.73,1898.00 914.73,1898.00
             914.73,1898.00 887.66,1866.00 887.66,1866.00
             823.84,1784.54 774.55,1688.04 744.72,1589.00
             728.49,1535.12 717.83,1479.11 713.91,1423.00
             713.91,1423.00 712.00,1398.00 712.00,1398.00
             712.00,1398.00 711.00,1385.00 711.00,1385.00
             711.00,1385.00 711.00,1371.00 711.00,1371.00
             711.00,1371.00 710.00,1355.00 710.00,1355.00
             710.00,1355.00 710.00,1345.00 710.00,1345.00
             710.00,1345.00 711.00,1332.00 711.00,1332.00
             711.00,1332.00 711.00,1318.00 711.00,1318.00
             711.00,1318.00 711.91,1308.00 711.91,1308.00
             711.91,1308.00 715.83,1264.00 715.83,1264.00
             723.38,1186.01 742.71,1110.73 771.80,1038.00
             780.99,1015.02 790.91,992.00 802.26,970.00
             818.44,938.63 836.49,908.19 856.34,879.00
             856.34,879.00 874.29,854.00 874.29,854.00
             892.12,829.10 912.35,806.67 932.83,784.00
             932.83,784.00 953.00,762.00 953.00,762.00
             953.00,762.00 974.00,742.04 974.00,742.04
             975.98,740.15 980.10,736.03 983.00,736.16
             985.92,736.29 989.98,740.98 992.00,743.00
             992.00,743.00 1011.00,762.00 1011.00,762.00
             1011.00,762.00 1089.00,840.00 1089.00,840.00
             1089.00,840.00 1112.00,863.00 1112.00,863.00
             1113.94,864.96 1118.52,868.74 1117.66,871.83
             1117.18,873.57 1109.73,880.27 1108.00,882.00
             1108.00,882.00 1094.00,895.91 1094.00,895.91
             1094.00,895.91 1083.01,906.00 1083.01,906.00
             1058.55,930.95 1036.00,959.11 1016.34,988.00
             1001.43,1009.91 987.42,1032.43 975.26,1056.00
             941.76,1120.93 917.61,1196.30 909.84,1269.00
             909.84,1269.00 904.91,1315.00 904.91,1315.00
             904.91,1315.00 904.00,1327.00 904.00,1327.00
             904.00,1327.00 904.00,1376.00 904.00,1376.00
             904.00,1376.00 904.91,1388.00 904.91,1388.00
             904.91,1388.00 908.83,1427.00 908.83,1427.00
             914.80,1486.71 930.89,1545.82 954.43,1601.00
             1029.48,1776.92 1178.35,1910.84 1361.00,1967.02
             1393.79,1977.11 1433.96,1986.08 1468.00,1990.15
             1468.00,1990.15 1498.00,1993.09 1498.00,1993.09
             1498.00,1993.09 1508.00,1994.04 1508.00,1994.04
             1508.00,1994.04 1522.00,1994.04 1522.00,1994.04
             1522.00,1994.04 1534.00,1995.00 1534.00,1995.00
             1534.00,1995.00 1571.00,1995.00 1571.00,1995.00
             1571.00,1995.00 1583.00,1994.09 1583.00,1994.09
             1610.14,1992.22 1637.16,1989.42 1664.00,1984.58
             1802.13,1959.66 1925.34,1890.58 2020.91,1788.00
             2108.83,1693.63 2167.36,1570.67 2185.13,1443.00
             2185.13,1443.00 2191.09,1384.00 2191.09,1384.00
             2191.09,1384.00 2192.00,1374.00 2192.00,1374.00
             2192.00,1374.00 2192.00,1331.00 2192.00,1331.00
             2192.00,1331.00 2191.09,1319.00 2191.09,1319.00
             2189.32,1293.25 2187.18,1267.49 2182.75,1242.00
             2168.35,1159.05 2138.91,1082.43 2094.42,1011.00
             2068.58,969.50 2036.77,928.24 2001.00,894.91
             1993.25,887.69 1985.24,878.24 1977.00,872.00 Z
           M 1474.00,1865.00
           C 1270.17,1838.11 1099.51,1685.46 1047.12,1487.00
             1039.12,1456.73 1034.80,1429.07 1031.83,1398.00
             1031.83,1398.00 1030.00,1378.00 1030.00,1378.00
             1030.00,1378.00 1029.00,1347.00 1029.00,1347.00
             1029.00,1347.00 1030.00,1330.00 1030.00,1330.00
             1030.00,1330.00 1031.00,1311.00 1031.00,1311.00
             1031.19,1294.81 1037.90,1256.65 1041.58,1240.00
             1058.05,1165.39 1087.46,1100.22 1133.37,1039.00
             1147.60,1020.03 1173.45,989.81 1191.00,974.58
             1191.00,974.58 1205.00,961.87 1205.00,961.87
             1206.73,960.40 1209.74,957.52 1212.00,957.17
             1215.53,956.62 1220.39,962.31 1223.00,964.58
             1223.00,964.58 1251.00,992.00 1251.00,992.00
             1251.00,992.00 1334.00,1075.00 1334.00,1075.00
             1334.00,1075.00 1343.09,1085.00 1343.09,1085.00
             1343.09,1085.00 1360.00,1102.00 1360.00,1102.00
             1360.00,1102.00 1445.00,1187.00 1445.00,1187.00
             1445.00,1187.00 1464.28,1207.00 1464.28,1207.00
             1466.86,1209.93 1471.01,1213.52 1472.44,1217.00
             1473.84,1220.40 1473.99,1226.30 1474.00,1230.00
             1474.00,1230.00 1474.00,1865.00 1474.00,1865.00 Z
           M 1621.00,1866.00
           C 1621.00,1866.00 1621.00,1231.00 1621.00,1231.00
             1621.01,1227.30 1621.16,1221.40 1622.56,1218.00
             1623.99,1214.52 1628.14,1210.93 1630.72,1208.00
             1630.72,1208.00 1651.00,1187.00 1651.00,1187.00
             1651.00,1187.00 1739.00,1099.00 1739.00,1099.00
             1739.00,1099.00 1846.00,992.00 1846.00,992.00
             1846.00,992.00 1872.00,966.00 1872.00,966.00
             1874.42,963.58 1879.39,957.60 1883.00,957.87
             1885.58,958.07 1889.13,961.39 1891.00,963.07
             1891.00,963.07 1906.00,977.00 1906.00,977.00
             1927.77,998.76 1941.52,1013.60 1960.42,1038.00
             2009.02,1100.72 2043.49,1178.91 2057.58,1257.00
             2061.47,1278.59 2063.59,1300.17 2065.09,1322.00
             2065.09,1322.00 2066.00,1334.00 2066.00,1334.00
             2066.00,1334.00 2066.00,1375.00 2066.00,1375.00
             2066.00,1375.00 2064.17,1395.00 2064.17,1395.00
             2064.17,1395.00 2057.42,1448.00 2057.42,1448.00
             2030.23,1598.79 1932.94,1733.71 1798.00,1806.69
             1762.87,1825.70 1725.61,1841.40 1687.00,1851.85
             1687.00,1851.85 1655.00,1859.55 1655.00,1859.55
             1655.00,1859.55 1621.00,1866.00 1621.00,1866.00 Z" />
</svg>
