<?xml version="1.0" encoding="iso-8859-1"?>
<!-- Uploaded to: SVG Repo, www.svgrepo.com, Generator: SVG Repo Mixer Tools -->
<svg height="800px" width="800px" version="1.1" id="Layer_1" xmlns="http://www.w3.org/2000/svg" xmlns:xlink="http://www.w3.org/1999/xlink" 
	 viewBox="0 0 473.931 473.931" xml:space="preserve">
<circle style="fill:#22C48A;" cx="236.966" cy="236.966" r="236.966"/>
<path style="fill:#81BCB9;" d="M157.569,348.582c-5.115,0-9.736-2.062-13.111-5.384c3.383,3.424,8.082,5.553,13.279,5.553h4.011
	l-0.094-0.168H157.569z"/>
<polygon style="fill:#8AC5C4;" points="171.253,348.582 161.655,348.582 161.753,348.747 171.399,348.747 "/>
<path style="fill:#EDC92C;" d="M369.016,240.902l-14.054-24.958c-0.876,3.689-2.836,7.154-5.927,9.822l-31.958,27.566
	l-75.879,65.455l-8.374,20.232l129.083-72.676c2.705-1.523,4.808-3.663,6.395-6.088C371.991,254.608,372.56,247.188,369.016,240.902
	z"/>
<polygon style="fill:#94D0D0;" points="185.546,348.582 171.253,348.582 171.399,348.747 185.947,348.747 "/>
<path style="fill:#F37C2A;" d="M350.981,199.428l-37.923-43.966c-2.485-2.885-5.673-4.808-9.092-5.766
	c2.447,4.718,2.937,10.402,0.752,15.697l-12.767,30.825l-23.648,57.114l-33.998,83.434L346.09,228.723l-0.752,0.236l3.697-3.192
	c3.091-2.668,5.051-6.133,5.927-9.822C356.302,210.309,355.059,204.15,350.981,199.428z"/>
<path style="fill:#ED3351;" d="M368.301,260.254c-1.587,2.425-3.689,4.565-6.395,6.088l-129.083,72.676l-1.426,0.801
	c-3.259,5.179-8.962,8.647-15.513,8.737l-0.344,0.195h12.995h125.36c10.32,0,18.679-8.359,18.679-18.679v-58.057
	C372.575,267.532,370.932,263.469,368.301,260.254z"/>
<g>
	<path style="fill:#A0D5D9;" d="M206.657,348.582l-0.198,0.168h9.077l0.344-0.195c-0.086,0-0.168,0.026-0.262,0.026H206.657z"/>
	<polygon style="fill:#A0D5D9;" points="185.546,348.582 185.947,348.747 206.463,348.747 206.657,348.582 	"/>
</g>
<path style="fill:#357180;" d="M303.966,149.697c-1.949-3.779-5.122-6.948-9.362-8.703l-53.642-22.211
	c-4.752-1.968-9.852-1.826-14.267-0.007c4.591,3.401,7.607,8.812,7.607,14.967v64.983v29.949v24.658v71.4v5.171
	c0,3.652-1.089,7.034-2.907,9.912l1.426-0.801l7.592-18.331l0.438-0.288l27.45-67.064l23.648-57.114l12.767-30.825
	C306.903,160.099,306.416,154.415,303.966,149.697z"/>
<g>
	<path style="fill:#B3DCE2;" d="M139.059,311.266l-0.168-0.202v18.84c0,5.201,2.133,9.901,5.568,13.291
		c-3.334-3.375-5.399-8.007-5.399-13.126V311.266z"/>
	<path style="fill:#B3DCE2;" d="M139.059,283.73v-2.855l-0.168,0.15v2.889C138.943,283.846,139.006,283.794,139.059,283.73z"/>
	<polygon style="fill:#B3DCE2;" points="139.059,308.463 138.89,308.16 138.89,311.064 139.059,311.266 	"/>
	<path style="fill:#B3DCE2;" d="M138.89,283.914v24.243l0.168,0.303v-24.733C139.006,283.794,138.943,283.846,138.89,283.914z"/>
	<path style="fill:#B3DCE2;" d="M140.982,311.872c-0.116,0.4-0.262,0.797-0.359,1.201l2.982,3.454L140.982,311.872z"/>
</g>
<path style="fill:#1FA85B;" d="M226.698,118.778c-3.106-2.301-6.915-3.708-11.079-3.708h-58.05c-10.32,0-18.679,8.359-18.679,18.675
	v147.279l0.168-0.15v2.855v24.733v2.803v18.802c0,5.119,2.069,9.747,5.399,13.126c3.375,3.326,7.996,5.384,13.111,5.384h4.086h9.594
	h14.294h21.115h8.962c0.094,0,0.176-0.026,0.262-0.026c6.556-0.09,12.254-3.558,15.513-8.737c1.818-2.881,2.907-6.264,2.907-9.912
	v-5.171v-71.4v-24.658v-29.949v-64.979C234.305,127.59,231.289,122.18,226.698,118.778z"/>
<circle style="fill:#81BCB9;" cx="211.226" cy="327.105" r="11.846"/>
</svg>