<?xml version="1.0" encoding="UTF-8" standalone="no"?>
<!DOCTYPE svg PUBLIC "-//W3C//DTD SVG 20010904//EN"
              "http://www.w3.org/TR/2001/REC-SVG-20010904/DTD/svg10.dtd">

<svg xmlns="http://www.w3.org/2000/svg"
     width="677.419mm" height="381.085mm"
     viewBox="0 0 8001 4501">
  <path id="التحديد"
        fill="none" stroke="black" stroke-width="1"
        d="M 3992.00,1405.42
           C 4000.06,1404.44 4005.23,1405.38 4013.00,1406.04
             4013.00,1406.04 4023.00,1406.04 4023.00,1406.04
             4035.80,1407.39 4048.46,1409.50 4061.00,1412.35
             4149.81,1432.56 4221.26,1498.85 4250.00,1585.00
             4256.29,1603.87 4262.76,1633.21 4263.00,1653.00
             4263.00,1653.00 4263.00,1681.00 4263.00,1681.00
             4262.97,1701.10 4256.46,1732.85 4250.00,1752.00
             4222.00,1834.98 4156.14,1897.57 4072.00,1921.57
             4042.39,1930.02 4017.44,1931.35 3987.00,1931.00
             3987.00,1931.00 3978.00,1930.17 3978.00,1930.17
             3954.30,1927.87 3932.41,1923.88 3910.00,1915.42
             3869.12,1900.00 3833.55,1876.53 3804.17,1844.00
             3734.45,1766.81 3718.08,1652.14 3761.31,1558.00
             3792.30,1490.51 3851.15,1439.05 3922.00,1417.02
             3936.27,1412.59 3954.15,1408.76 3969.00,1407.16
             3969.00,1407.16 3992.00,1405.42 3992.00,1405.42 Z
           M 3435.00,1629.34
           C 3439.95,1629.56 3442.62,1633.62 3446.00,1637.00
             3446.00,1637.00 3466.00,1657.00 3466.00,1657.00
             3466.00,1657.00 3549.00,1740.00 3549.00,1740.00
             3549.00,1740.00 3573.00,1764.00 3573.00,1764.00
             3575.14,1766.14 3580.56,1770.57 3579.66,1773.91
             3579.16,1775.78 3571.81,1782.22 3570.00,1783.99
             3570.00,1783.99 3542.00,1811.00 3542.00,1811.00
             3515.21,1837.83 3491.37,1868.70 3470.03,1900.00
             3420.22,1973.05 3386.27,2061.91 3371.75,2149.00
             3371.75,2149.00 3364.91,2209.00 3364.91,2209.00
             3364.91,2209.00 3364.00,2219.00 3364.00,2219.00
             3364.00,2219.00 3363.00,2241.00 3363.00,2241.00
             3363.00,2241.00 3363.00,2266.00 3363.00,2266.00
             3363.00,2266.00 3364.00,2288.00 3364.00,2288.00
             3364.00,2288.00 3364.91,2298.00 3364.91,2298.00
             3364.91,2298.00 3369.73,2344.00 3369.73,2344.00
             3374.75,2378.85 3382.62,2413.45 3393.34,2447.00
             3452.12,2630.89 3595.42,2781.45 3776.00,2849.58
             3836.94,2872.57 3912.84,2889.24 3978.00,2890.00
             3978.00,2890.00 3993.00,2891.00 3993.00,2891.00
             3993.00,2891.00 4034.00,2890.00 4034.00,2890.00
             4034.00,2890.00 4057.00,2888.17 4057.00,2888.17
             4106.72,2883.35 4146.19,2875.88 4194.00,2861.02
             4395.94,2798.27 4555.39,2632.83 4613.71,2430.00
             4625.52,2388.93 4632.06,2350.43 4636.17,2308.00
             4636.17,2308.00 4638.00,2285.00 4638.00,2285.00
             4638.00,2285.00 4639.00,2246.00 4639.00,2246.00
             4639.00,2246.00 4638.04,2236.00 4638.04,2236.00
             4638.04,2236.00 4638.04,2224.00 4638.04,2224.00
             4638.04,2224.00 4637.09,2212.00 4637.09,2212.00
             4635.22,2184.72 4632.18,2157.88 4626.80,2131.00
             4612.04,2057.19 4586.99,1990.64 4548.20,1926.00
             4523.57,1884.96 4494.03,1846.58 4460.96,1812.00
             4460.96,1812.00 4432.00,1783.72 4432.00,1783.72
             4429.90,1781.87 4422.20,1775.53 4422.20,1772.91
             4422.20,1769.97 4428.86,1764.14 4431.00,1762.00
             4431.00,1762.00 4456.00,1737.00 4456.00,1737.00
             4456.00,1737.00 4470.01,1722.00 4470.01,1722.00
             4470.01,1722.00 4529.00,1663.00 4529.00,1663.00
             4529.00,1663.00 4551.00,1641.00 4551.00,1641.00
             4551.00,1641.00 4562.00,1630.37 4562.00,1630.37
             4566.74,1627.23 4569.72,1631.85 4573.00,1634.96
             4573.00,1634.96 4597.00,1658.00 4597.00,1658.00
             4630.79,1691.79 4662.23,1728.58 4689.34,1768.00
             4706.33,1792.71 4722.57,1817.76 4737.14,1844.00
             4784.50,1929.32 4819.48,2026.26 4833.73,2123.00
             4833.73,2123.00 4841.09,2190.00 4841.09,2190.00
             4841.09,2190.00 4842.00,2200.00 4842.00,2200.00
             4842.00,2200.00 4843.00,2219.00 4843.00,2219.00
             4843.00,2219.00 4843.00,2241.00 4843.00,2241.00
             4843.00,2241.00 4843.82,2255.00 4843.82,2255.00
             4843.82,2255.00 4843.00,2266.00 4843.00,2266.00
             4843.00,2266.00 4843.00,2287.00 4843.00,2287.00
             4843.00,2287.00 4842.00,2306.00 4842.00,2306.00
             4842.00,2306.00 4841.09,2316.00 4841.09,2316.00
             4841.09,2316.00 4835.27,2371.00 4835.27,2371.00
             4828.01,2421.38 4817.10,2468.69 4801.00,2517.00
             4778.56,2584.31 4748.77,2649.29 4710.31,2709.00
             4606.17,2870.67 4451.26,2989.75 4270.00,3052.66
             4215.17,3071.69 4154.70,3084.99 4097.00,3091.16
             4097.00,3091.16 4065.00,3094.09 4065.00,3094.09
             4065.00,3094.09 4055.00,3095.00 4055.00,3095.00
             4055.00,3095.00 4036.00,3096.00 4036.00,3096.00
             4036.00,3096.00 4019.00,3096.00 4019.00,3096.00
             4019.00,3096.00 4009.00,3096.96 4009.00,3096.96
             4009.00,3096.96 3997.00,3096.96 3997.00,3096.96
             3997.00,3096.96 3980.00,3096.00 3980.00,3096.00
             3980.00,3096.00 3965.00,3096.00 3965.00,3096.00
             3965.00,3096.00 3947.00,3095.00 3947.00,3095.00
             3947.00,3095.00 3937.00,3094.09 3937.00,3094.09
             3937.00,3094.09 3889.00,3089.15 3889.00,3089.15
             3833.00,3082.46 3771.09,3066.65 3718.00,3047.69
             3602.59,3006.49 3504.60,2945.79 3416.00,2861.04
             3416.00,2861.04 3406.00,2851.99 3406.00,2851.99
             3406.00,2851.99 3396.91,2842.00 3396.91,2842.00
             3396.91,2842.00 3380.83,2825.00 3380.83,2825.00
             3380.83,2825.00 3337.42,2774.00 3337.42,2774.00
             3253.41,2666.18 3194.72,2538.68 3170.42,2404.00
             3165.42,2376.23 3161.88,2348.11 3159.91,2320.00
             3159.91,2320.00 3159.00,2310.00 3159.00,2310.00
             3159.00,2310.00 3158.00,2293.00 3158.00,2293.00
             3158.00,2293.00 3158.00,2280.00 3158.00,2280.00
             3158.00,2280.00 3157.00,2265.00 3157.00,2265.00
             3157.00,2265.00 3157.00,2241.00 3157.00,2241.00
             3157.00,2241.00 3157.98,2230.00 3157.98,2230.00
             3157.98,2230.00 3157.98,2214.00 3157.98,2214.00
             3157.98,2214.00 3158.96,2203.00 3158.96,2203.00
             3158.96,2203.00 3163.85,2149.00 3163.85,2149.00
             3170.28,2095.17 3182.86,2040.42 3200.00,1989.00
             3234.72,1884.84 3284.22,1795.32 3354.75,1711.00
             3354.75,1711.00 3390.96,1671.00 3390.96,1671.00
             3390.96,1671.00 3400.01,1661.01 3400.01,1661.01
             3400.01,1661.01 3410.00,1651.96 3410.00,1651.96
             3415.07,1647.11 3429.90,1632.12 3435.00,1629.34 Z
           M 3666.00,1857.00
           C 3666.00,1857.00 3690.00,1880.00 3690.00,1880.00
             3690.00,1880.00 3731.00,1921.00 3731.00,1921.00
             3731.00,1921.00 3864.00,2055.00 3864.00,2055.00
             3864.00,2055.00 3911.00,2102.00 3911.00,2102.00
             3911.00,2102.00 3926.40,2119.00 3926.40,2119.00
             3926.40,2119.00 3927.00,2126.00 3927.00,2126.00
             3927.00,2126.00 3927.00,2767.00 3927.00,2767.00
             3913.68,2766.88 3884.77,2759.82 3871.00,2756.37
             3821.59,2744.02 3771.20,2722.32 3728.00,2695.42
             3675.38,2662.65 3628.55,2621.16 3590.65,2572.00
             3552.25,2522.18 3523.69,2467.04 3505.02,2407.00
             3493.65,2370.41 3486.58,2332.18 3483.91,2294.00
             3483.91,2294.00 3482.96,2284.00 3482.96,2284.00
             3482.96,2284.00 3482.96,2273.00 3482.96,2273.00
             3482.96,2273.00 3482.00,2261.00 3482.00,2261.00
             3482.00,2261.00 3482.00,2245.00 3482.00,2245.00
             3482.00,2245.00 3483.00,2231.00 3483.00,2231.00
             3483.23,2210.59 3485.58,2190.14 3488.92,2170.00
             3501.01,2096.99 3526.88,2028.71 3568.00,1967.00
             3595.24,1926.12 3627.98,1888.20 3666.00,1857.00 Z
           M 4335.00,1858.00
           C 4345.44,1864.99 4359.84,1879.84 4369.00,1889.00
             4397.32,1917.32 4421.27,1948.03 4442.42,1982.00
             4475.91,2035.78 4498.96,2095.76 4510.61,2158.00
             4514.35,2177.95 4516.71,2197.79 4518.09,2218.00
             4518.09,2218.00 4519.00,2230.00 4519.00,2230.00
             4519.00,2230.00 4519.00,2243.00 4519.00,2243.00
             4519.00,2243.00 4519.91,2256.00 4519.91,2256.00
             4519.91,2256.00 4519.02,2264.00 4519.02,2264.00
             4519.02,2264.00 4519.02,2281.00 4519.02,2281.00
             4519.02,2281.00 4518.09,2291.00 4518.09,2291.00
             4514.92,2337.30 4505.90,2383.19 4490.31,2427.00
             4467.71,2490.51 4434.22,2547.34 4389.72,2598.00
             4331.86,2663.86 4256.49,2713.95 4174.00,2743.31
             4152.49,2750.96 4130.33,2757.04 4108.00,2761.79
             4108.00,2761.79 4074.00,2768.00 4074.00,2768.00
             4074.00,2768.00 4074.00,2127.00 4074.00,2127.00
             4074.00,2127.00 4074.60,2120.00 4074.60,2120.00
             4074.60,2120.00 4091.00,2102.00 4091.00,2102.00
             4091.00,2102.00 4139.00,2054.00 4139.00,2054.00
             4139.00,2054.00 4335.00,1858.00 4335.00,1858.00 Z" />
</svg>
